<svg width="50" height="24" viewBox="0 0 50 24" fill="none" xmlns="http://www.w3.org/2000/svg">
<path fill-rule="evenodd" clip-rule="evenodd" d="M29.7353 1.33691e-07C30.418 -0.000212772 31.0755 0.253875 31.576 0.711329C32.0766 1.16878 32.3832 1.79579 32.4344 2.46667L32.4412 2.66667V21.3333C32.4414 22.0061 32.1836 22.6541 31.7194 23.1474C31.2552 23.6407 30.619 23.9429 29.9382 23.9933L29.7353 24H16.2059C15.5232 24.0002 14.8657 23.7461 14.3651 23.2887C13.8646 22.8312 13.558 22.2042 13.5068 21.5333L13.5 21.3333V2.66667C13.4998 1.9939 13.7576 1.34591 14.2218 0.852603C14.686 0.359294 15.3222 0.0571246 16.0029 0.00666695L16.2059 1.33691e-07H29.7353ZM22.9706 13.3333C21.8328 13.3333 20.6165 13.516 19.6302 13.948C18.6912 14.36 17.5588 15.2053 17.5588 16.6667C17.5575 17.0061 17.6876 17.3333 17.9227 17.5815C18.1577 17.8297 18.4799 17.9802 18.8236 18.0023C19.1674 18.0244 19.5067 17.9164 19.7725 17.7005C20.0383 17.4845 20.2104 17.1768 20.2539 16.84L20.2647 16.6867L20.3324 16.6187C20.4531 16.5227 20.587 16.4442 20.7301 16.3853C21.2659 16.1507 22.0776 16 22.9706 16C23.8622 16 24.6753 16.1507 25.2111 16.3853C25.3599 16.4507 25.4681 16.5147 25.5439 16.568L25.6075 16.6187L25.6765 16.6867C25.6792 17.0403 25.8243 17.3784 26.0799 17.6265C26.3355 17.8747 26.6807 18.0127 27.0396 18.01C27.3984 18.0073 27.7414 17.8643 27.9933 17.6124C28.2451 17.3605 28.385 17.0203 28.3824 16.6667C28.3824 15.2053 27.2499 14.36 26.311 13.948C25.3247 13.516 24.1071 13.3333 22.9706 13.3333ZM22.9706 6.66667C22.2529 6.66667 21.5647 6.94762 21.0572 7.44772C20.5498 7.94781 20.2647 8.62609 20.2647 9.33333C20.2647 10.0406 20.5498 10.7189 21.0572 11.219C21.5647 11.719 22.2529 12 22.9706 12C23.6882 12 24.3765 11.719 24.8839 11.219C25.3914 10.7189 25.6765 10.0406 25.6765 9.33333C25.6765 8.62609 25.3914 7.94781 24.8839 7.44772C24.3765 6.94762 23.6882 6.66667 22.9706 6.66667ZM35.1119 21.4173L33.7941 21.8493V2.15067L35.1119 2.58267C35.516 2.71533 35.8676 2.96996 36.1167 3.31049C36.3659 3.65103 36.5 4.06018 36.5 4.48V19.52C36.5 19.9398 36.3659 20.349 36.1167 20.6895C35.8676 21.03 35.516 21.2847 35.1119 21.4173Z" fill="#4F430F"/>
</svg>
